# xmcd
#
# Track frame offsets:
#	150
#	16035
#	29918
#	44063
#	54833
#	69436
#	81024
#	94179
#	110717
#	121840
#
# Disc length: 1895 seconds
#
# Revision: 1
# Processed by: cddbd v1.5.2PL0 Copyright (c) Steve Scherf et al.
# Submitted via: audiograbber 1.83.01
#
DISCID=8007650a
DTITLE=Waylon Jennings - Lonesome, On'ry and Mean
DYEAR=1973
DGENRE=Country
TTITLE0=Lonesome, On'ry And Mean
TTITLE1=Freedom To Say
TTITLE2=Lay It Down
TTITLE3=Gone To Denver
TTITLE4=Good Time Charlie's Got The Blues
TTITLE5=You Can Have Her
TTITLE6=Pretend I Never Happened
TTITLE7=San Francisco Mable Joy
TTITLE8=Sandy Sends Her Best 
TTITLE9=Me And Bobby McGee
EXTD=I made this CD from one of my LP's
EXTT0=
EXTT1=
EXTT2=
EXTT3=
EXTT4=
EXTT5=
EXTT6=
EXTT7=
EXTT8=
EXTT9=
PLAYORDER=
